<mxfile host="app.diagrams.net" modified="2023-07-09T09:44:53.375Z" agent="Mozilla/5.0 (Windows NT 10.0; Win64; x64) AppleWebKit/537.36 (KHTML, like Gecko) Chrome/114.0.0.0 Safari/537.36" etag="XT09EWTft1zsDbmUmX-A" version="21.6.1" type="google">
  <diagram name="Page-1" id="UA6ysdzrNT_ifUrcYrLg">
    <mxGraphModel grid="0" page="0" gridSize="10" guides="1" tooltips="1" connect="1" arrows="1" fold="1" pageScale="1" pageWidth="850" pageHeight="1100" math="0" shadow="0">
      <root>
        <mxCell id="0" />
        <mxCell id="1" parent="0" />
        <mxCell id="-U4-cYCsucinl2oT-uxq-1" value="" style="endArrow=none;html=1;rounded=0;strokeWidth=3;entryX=0.5;entryY=0;entryDx=0;entryDy=0;exitX=0.5;exitY=1;exitDx=0;exitDy=0;" edge="1" parent="1" source="-U4-cYCsucinl2oT-uxq-3" target="-U4-cYCsucinl2oT-uxq-6">
          <mxGeometry width="50" height="50" relative="1" as="geometry">
            <mxPoint x="214" y="346" as="sourcePoint" />
            <mxPoint x="212" y="89" as="targetPoint" />
          </mxGeometry>
        </mxCell>
        <mxCell id="-U4-cYCsucinl2oT-uxq-2" value="" style="endArrow=none;html=1;rounded=0;strokeWidth=3;" edge="1" parent="1">
          <mxGeometry width="50" height="50" relative="1" as="geometry">
            <mxPoint x="213" y="282" as="sourcePoint" />
            <mxPoint x="271" y="112" as="targetPoint" />
            <Array as="points">
              <mxPoint x="273" y="242" />
            </Array>
          </mxGeometry>
        </mxCell>
        <mxCell id="-U4-cYCsucinl2oT-uxq-3" value="" style="shape=ellipse;fillColor=#0065FF;strokeColor=none;html=1;sketch=0;" vertex="1" parent="1">
          <mxGeometry x="206" y="269" width="21" height="20" as="geometry" />
        </mxCell>
        <mxCell id="-U4-cYCsucinl2oT-uxq-4" value="" style="shape=ellipse;fillColor=#FF0000;strokeColor=none;html=1;sketch=0;" vertex="1" parent="1">
          <mxGeometry x="263" y="228" width="21" height="20" as="geometry" />
        </mxCell>
        <mxCell id="-U4-cYCsucinl2oT-uxq-5" value="" style="shape=ellipse;fillColor=#FF0000;strokeColor=none;html=1;sketch=0;" vertex="1" parent="1">
          <mxGeometry x="261" y="110" width="21" height="20" as="geometry" />
        </mxCell>
        <mxCell id="-U4-cYCsucinl2oT-uxq-6" value="" style="shape=ellipse;fillColor=#0065FF;strokeColor=none;html=1;sketch=0;" vertex="1" parent="1">
          <mxGeometry x="205" y="186" width="21" height="20" as="geometry" />
        </mxCell>
        <mxCell id="-U4-cYCsucinl2oT-uxq-15" value="" style="endArrow=none;html=1;rounded=0;strokeWidth=3;entryX=0.5;entryY=0;entryDx=0;entryDy=0;" edge="1" parent="1" target="-U4-cYCsucinl2oT-uxq-20">
          <mxGeometry width="50" height="50" relative="1" as="geometry">
            <mxPoint x="636" y="284" as="sourcePoint" />
            <mxPoint x="632" y="79" as="targetPoint" />
          </mxGeometry>
        </mxCell>
        <mxCell id="-U4-cYCsucinl2oT-uxq-16" value="" style="endArrow=none;html=1;rounded=0;strokeWidth=3;" edge="1" parent="1">
          <mxGeometry width="50" height="50" relative="1" as="geometry">
            <mxPoint x="633" y="192" as="sourcePoint" />
            <mxPoint x="691" y="24" as="targetPoint" />
            <Array as="points">
              <mxPoint x="693" y="152" />
            </Array>
          </mxGeometry>
        </mxCell>
        <mxCell id="-U4-cYCsucinl2oT-uxq-17" value="" style="shape=ellipse;fillColor=#0065FF;strokeColor=none;html=1;sketch=0;" vertex="1" parent="1">
          <mxGeometry x="626" y="269" width="21" height="20" as="geometry" />
        </mxCell>
        <mxCell id="-U4-cYCsucinl2oT-uxq-18" value="" style="shape=ellipse;fillColor=#FF0000;strokeColor=none;html=1;sketch=0;" vertex="1" parent="1">
          <mxGeometry x="682" y="134" width="21" height="20" as="geometry" />
        </mxCell>
        <mxCell id="-U4-cYCsucinl2oT-uxq-19" value="" style="shape=ellipse;fillColor=#FF0000;strokeColor=none;html=1;sketch=0;" vertex="1" parent="1">
          <mxGeometry x="681" y="19" width="21" height="20" as="geometry" />
        </mxCell>
        <mxCell id="-U4-cYCsucinl2oT-uxq-20" value="" style="shape=ellipse;fillColor=#0065FF;strokeColor=none;html=1;sketch=0;" vertex="1" parent="1">
          <mxGeometry x="625" y="176" width="21" height="20" as="geometry" />
        </mxCell>
        <mxCell id="-U4-cYCsucinl2oT-uxq-21" value="" style="endArrow=classic;html=1;rounded=0;strokeWidth=3;" edge="1" parent="1">
          <mxGeometry width="50" height="50" relative="1" as="geometry">
            <mxPoint x="312" y="192" as="sourcePoint" />
            <mxPoint x="599" y="192" as="targetPoint" />
          </mxGeometry>
        </mxCell>
        <mxCell id="-U4-cYCsucinl2oT-uxq-22" value="&lt;font style=&quot;font-size: 14px;&quot;&gt;&lt;b&gt;git switch f1 &amp;amp;&amp;amp; git rebase main&lt;/b&gt;&lt;/font&gt;" style="text;html=1;align=center;verticalAlign=middle;resizable=0;points=[];autosize=1;strokeColor=none;fillColor=none;" vertex="1" parent="1">
          <mxGeometry x="341" y="138" width="230" height="30" as="geometry" />
        </mxCell>
        <mxCell id="-U4-cYCsucinl2oT-uxq-23" value="" style="endArrow=classic;html=1;rounded=0;strokeWidth=3;" edge="1" parent="1">
          <mxGeometry width="50" height="50" relative="1" as="geometry">
            <mxPoint x="813" y="203" as="sourcePoint" />
            <mxPoint x="1100" y="203" as="targetPoint" />
          </mxGeometry>
        </mxCell>
        <mxCell id="-U4-cYCsucinl2oT-uxq-24" value="" style="endArrow=none;html=1;rounded=0;strokeWidth=3;" edge="1" parent="1">
          <mxGeometry width="50" height="50" relative="1" as="geometry">
            <mxPoint x="1194" y="316" as="sourcePoint" />
            <mxPoint x="1192" y="59" as="targetPoint" />
          </mxGeometry>
        </mxCell>
        <mxCell id="-U4-cYCsucinl2oT-uxq-25" value="" style="shape=ellipse;fillColor=#0065FF;strokeColor=none;html=1;sketch=0;" vertex="1" parent="1">
          <mxGeometry x="1186" y="239" width="21" height="20" as="geometry" />
        </mxCell>
        <mxCell id="-U4-cYCsucinl2oT-uxq-26" value="" style="shape=ellipse;fillColor=#FF0000;strokeColor=none;html=1;sketch=0;" vertex="1" parent="1">
          <mxGeometry x="1182" y="104" width="21" height="20" as="geometry" />
        </mxCell>
        <mxCell id="-U4-cYCsucinl2oT-uxq-27" value="" style="shape=ellipse;fillColor=#FF0000;strokeColor=none;html=1;sketch=0;" vertex="1" parent="1">
          <mxGeometry x="1182" y="58" width="21" height="20" as="geometry" />
        </mxCell>
        <mxCell id="-U4-cYCsucinl2oT-uxq-28" value="" style="shape=ellipse;fillColor=#0065FF;strokeColor=none;html=1;sketch=0;" vertex="1" parent="1">
          <mxGeometry x="1185" y="156" width="21" height="20" as="geometry" />
        </mxCell>
        <mxCell id="-U4-cYCsucinl2oT-uxq-30" value="&lt;font style=&quot;font-size: 14px;&quot;&gt;&lt;b&gt;git switch main &amp;amp;&amp;amp; git rebase f1&lt;/b&gt;&lt;/font&gt;" style="text;html=1;align=center;verticalAlign=middle;resizable=0;points=[];autosize=1;strokeColor=none;fillColor=none;" vertex="1" parent="1">
          <mxGeometry x="849.5" y="138" width="230" height="30" as="geometry" />
        </mxCell>
      </root>
    </mxGraphModel>
  </diagram>
</mxfile>
